# xmcd
#
# Track frame offsets:
#	150
#	25642
#	38723
#	55367
#	75879
#	98242
#	121728
#	141149
#	156958
#	172120
#	192916
#	214339
#	228762
#	245389
#	263530
#	284689
#	297958
#
# Disc length: 4196 seconds
#
# Revision: 1
# Processed by: cddbd v1.5.1PL2 Copyright (c) Steve Scherf et al.
# Submitted via: audiograbber 1.83.01
#
DISCID=e8106211
DTITLE=El Sikuri - Indianer Geschichte
DYEAR=2005
DGENRE=Panflöte
TTITLE0=Alegria
TTITLE1=Akropolis Adieu
TTITLE2=Goodbye my love, goodbye
TTITLE3=The loneley sheperd
TTITLE4=Tornero
TTITLE5=Chiquitita
TTITLE6=Libertad
TTITLE7=Never on sunday
TTITLE8=Inka bridges
TTITLE9=Vino griego
TTITLE10=Besame mucho
TTITLE11=Ti amo
TTITLE12=Sierra madre
TTITLE13=Con te partiro
TTITLE14=La paloma
TTITLE15=Tomancas
TTITLE16=El condor pasa
EXTD=1. CD
EXTT0=
EXTT1=
EXTT2=
EXTT3=
EXTT4=
EXTT5=
EXTT6=
EXTT7=
EXTT8=
EXTT9=
EXTT10=
EXTT11=
EXTT12=
EXTT13=
EXTT14=
EXTT15=
EXTT16=
PLAYORDER=
